<?xml version="1.0" standalone="no"?>
<!DOCTYPE svg PUBLIC "-//W3C//DTD SVG 20010904//EN"
 "http://www.w3.org/TR/2001/REC-SVG-20010904/DTD/svg10.dtd">
<svg version="1.0" xmlns="http://www.w3.org/2000/svg"
 viewBox="0 0 512.000000 512.000000"
 preserveAspectRatio="xMidYMid meet">

<g transform="translate(0.000000,512.000000) scale(0.100000,-0.100000)"
fill="#000000" stroke="none">
<path d="M2395 4509 c-128 -29 -235 -76 -332 -146 -54 -37 -63 -49 -63 -74 0
-22 -14 -46 -51 -89 -45 -51 -57 -58 -96 -63 -114 -12 -240 -114 -285 -227
-33 -85 -31 -206 5 -285 16 -33 36 -69 47 -80 14 -16 19 -41 22 -115 5 -112
33 -180 89 -218 l34 -23 6 -152 c3 -89 13 -182 23 -225 33 -135 119 -232 284
-317 90 -47 94 -56 67 -170 -15 -64 -107 -269 -126 -281 -5 -3 -27 5 -50 17
-84 42 -172 7 -215 -85 -19 -41 -24 -68 -24 -136 l0 -85 -68 -40 c-37 -22
-116 -70 -177 -107 -103 -64 -113 -68 -170 -68 -75 0 -90 -9 -90 -56 0 -36 -2
-38 -120 -110 l-120 -72 0 -183 0 -183 140 -34 c248 -59 422 -100 801 -188
l371 -86 496 279 496 279 98 -17 c54 -10 153 -21 220 -25 l122 -7 66 32 c81
40 134 103 165 197 20 58 21 78 15 163 -3 53 -5 123 -3 156 2 33 3 121 2 195
-1 324 -123 618 -355 854 l-88 89 20 28 c40 57 70 138 76 206 7 82 -16 178
-81 350 l-43 113 32 20 c49 30 104 96 132 156 73 160 45 327 -76 458 -26 28
-58 69 -72 91 -69 107 -181 174 -308 182 -64 5 -87 2 -150 -20 l-74 -26 -46
24 c-25 12 -50 34 -56 46 -17 40 -149 68 -315 67 -74 0 -153 -4 -175 -9z m390
-53 c66 -19 69 -21 61 -34 -3 -6 -33 -2 -73 9 -47 13 -101 19 -174 19 -99 0
-108 -2 -122 -22 -13 -21 -22 -23 -92 -21 -69 1 -86 -3 -154 -33 -41 -19 -79
-40 -83 -47 -4 -7 -11 -12 -15 -12 -4 0 -25 -11 -46 -24 -21 -13 -41 -20 -45
-17 -32 33 194 155 353 191 81 19 309 13 390 -9z m524 -91 c43 -15 116 -63
109 -71 -2 -2 -22 6 -45 17 -66 33 -154 45 -224 31 -49 -11 -63 -10 -86 1
l-26 14 34 11 c19 6 43 13 54 16 34 8 137 -2 184 -19z m-336 -21 c103 -52 185
-113 256 -191 57 -61 61 -68 45 -80 -10 -7 -20 -13 -24 -13 -3 0 -39 34 -80
76 -73 75 -184 157 -248 183 -23 10 -32 20 -32 37 0 13 2 24 5 24 3 0 38 -16
78 -36z m-128 -117 l-35 -64 -128 3 c-104 3 -140 8 -197 29 -38 13 -83 25
-100 25 -58 1 -59 16 -3 33 124 39 265 48 400 25 64 -10 73 -10 82 5 6 9 12
15 14 13 1 -2 -13 -33 -33 -69z m104 34 c12 -8 7 -20 -24 -65 -61 -89 -93 -65
-35 27 31 49 36 52 59 38z m458 -55 c67 -18 110 -45 161 -100 47 -51 75 -100
70 -124 -3 -11 -11 -1 -25 28 -18 40 -63 94 -63 76 0 -4 -10 4 -22 17 -35 38
-122 69 -192 69 -57 1 -86 10 -86 29 0 20 90 23 157 5z m-1378 -15 c9 -15 2
-31 -33 -83 -23 -36 -56 -100 -71 -142 -20 -54 -35 -80 -49 -86 -12 -4 -23 -6
-24 -5 -7 6 21 119 39 163 23 52 106 172 119 172 5 0 14 -9 19 -19z m386 -15
c28 -7 71 -22 96 -33 37 -17 60 -20 110 -16 76 6 222 -17 303 -48 50 -19 57
-25 51 -43 -3 -12 -13 -52 -21 -91 -37 -171 55 -359 214 -433 45 -21 76 -27
144 -30 49 -2 101 1 118 7 29 9 31 8 49 -27 26 -52 77 -195 96 -272 57 -219
-85 -430 -390 -583 -339 -171 -688 -212 -985 -117 -163 52 -309 167 -349 275
-20 54 -27 95 -16 95 3 0 17 -8 32 -17 66 -43 177 -7 271 87 58 59 144 180
168 235 40 97 -18 221 -122 261 -64 24 -153 15 -202 -22 -61 -45 -101 -86
-134 -137 -17 -26 -32 -46 -33 -45 -8 8 18 184 40 268 43 166 109 300 193 391
46 51 51 60 41 77 -28 45 23 77 140 88 39 4 71 11 71 16 0 6 -13 23 -30 38
-39 36 -38 58 3 75 41 18 79 18 142 1z m-201 -77 c12 -28 -70 -31 -116 -5 -39
21 -50 46 -22 46 8 0 23 -4 33 -10 13 -7 27 -3 52 14 l34 24 6 -27 c4 -14 10
-33 13 -42z m909 25 c4 -4 -11 -28 -32 -53 -50 -61 -82 -131 -92 -200 -7 -52
-8 -51 -5 24 3 89 25 146 79 203 32 33 39 37 50 26z m-1253 -30 c0 -22 -25
-42 -58 -47 -21 -4 -66 -25 -100 -47 -73 -47 -81 -38 -16 19 53 46 174 99 174
75z m184 -26 c20 -9 23 -14 15 -25 -21 -25 -64 -8 -53 20 7 20 6 20 38 5z
m1427 -53 c46 -30 75 -97 65 -149 -19 -101 -145 -158 -226 -103 -55 37 -75 72
-75 132 0 65 22 100 86 133 52 27 95 23 150 -13z m-423 -40 c-6 -14 -13 -23
-15 -21 -5 5 15 46 22 46 3 0 -1 -11 -7 -25z m166 -7 c-26 -50 -15 -138 22
-185 45 -56 107 -86 169 -80 49 5 49 5 20 -8 -73 -33 -176 -3 -221 65 -43 64
-44 142 -4 208 25 41 36 42 14 0z m-1279 -129 c4 -6 -2 -13 -14 -16 -12 -3
-21 -10 -21 -15 0 -5 -4 -7 -9 -3 -5 3 -32 -18 -60 -46 -39 -40 -50 -57 -46
-73 5 -17 4 -18 -4 -6 -9 13 -11 12 -12 -5 -1 -11 -1 -24 0 -28 1 -5 -3 -6 -9
-2 -5 3 -10 4 -10 1 0 -2 -3 -12 -7 -22 -5 -13 -3 -15 7 -9 8 5 11 3 9 -4 -3
-7 -9 -12 -14 -11 -6 1 -22 -35 -36 -80 -15 -45 -29 -78 -32 -73 -12 19 15
150 43 210 54 116 187 228 215 182z m1290 -159 c3 -6 -1 -7 -9 -4 -18 7 -21
14 -7 14 6 0 13 -4 16 -10z m138 -47 c-13 -2 -33 -2 -45 0 -13 2 -3 4 22 4 25
0 35 -2 23 -4z m-1295 -355 c30 -30 -4 -117 -41 -103 -27 11 -27 67 0 97 19
21 25 22 41 6z m62 -202 c0 -8 -7 -19 -15 -26 -12 -10 -16 -9 -21 4 -7 18 13
49 27 40 5 -3 9 -11 9 -18z m1683 -703 c42 -93 82 -217 96 -298 16 -93 24
-195 16 -195 -4 0 -27 17 -50 39 -92 85 -236 104 -359 48 -114 -52 -222 -194
-260 -338 -10 -42 -18 -54 -32 -53 -11 1 -102 25 -204 53 -264 75 -495 140
-565 160 -58 16 -60 17 -55 46 3 17 5 87 5 158 l-1 127 79 0 c71 0 78 -2 72
-17 -34 -89 -29 -220 10 -259 37 -37 115 -27 154 20 12 14 16 14 34 1 35 -24
133 -19 196 10 54 26 54 26 105 8 36 -13 81 -18 156 -18 95 0 110 3 156 27
115 61 194 205 194 353 l0 52 78 50 c42 28 88 63 101 77 14 14 28 26 31 26 4
0 23 -35 43 -77z m-1627 -115 c-12 -69 -28 -117 -60 -183 -52 -104 -132 -209
-164 -213 -12 -2 -22 0 -22 5 0 4 27 46 61 93 105 147 181 326 191 450 1 14 3
6 5 -17 2 -24 -3 -84 -11 -135z m941 10 c34 -10 65 -24 69 -30 5 -8 0 -9 -17
-4 -98 30 -150 38 -234 33 -180 -9 -302 -88 -351 -226 -11 -30 -13 -32 -13
-11 -1 44 44 124 94 168 54 48 139 78 252 91 78 9 114 6 200 -21z m-315 -625
c219 -59 398 -110 398 -113 0 -3 -42 -27 -92 -54 -51 -27 -133 -73 -183 -101
-49 -29 -221 -125 -382 -214 l-292 -161 -88 20 c-48 12 -160 38 -248 60 -191
46 -444 106 -650 155 -233 56 -230 55 -214 69 21 20 217 136 229 136 16 0 12
-15 -10 -35 -44 -40 -10 -95 60 -95 70 0 106 58 60 97 -40 35 -26 43 75 43
l94 0 -6 -49 c-7 -60 8 -106 47 -148 164 -175 642 -193 954 -36 77 39 166 117
190 168 24 50 20 121 -9 171 -40 68 -146 124 -283 150 -122 23 -117 21 -101
40 7 9 21 13 33 10 12 -3 200 -54 418 -113z m912 55 c34 -48 4 -128 -43 -113
-41 13 -54 82 -21 115 26 26 45 25 64 -2z m-144 -8 c27 -15 36 -74 16 -105
-20 -31 -50 -32 -70 -3 -22 31 -20 74 4 98 23 23 25 23 50 10z m-1880 -31 c0
-17 4 -38 10 -48 8 -15 3 -23 -29 -45 -36 -25 -44 -27 -135 -24 l-98 3 119 72
c65 40 121 73 126 73 4 0 7 -14 7 -31z m2146 -54 c31 -48 -5 -126 -50 -109
-32 12 -40 87 -13 122 16 20 45 14 63 -13z m-127 -60 c31 -16 71 -86 71 -125
0 -38 -37 -104 -69 -123 -49 -29 -88 -22 -132 22 -37 37 -39 42 -39 101 0 59
2 64 39 101 43 43 80 50 130 24z m-1434 -36 c24 -6 54 -22 66 -36 22 -22 22
-26 9 -51 -9 -15 -38 -38 -65 -52 -44 -22 -63 -25 -157 -25 -93 0 -110 3 -135
21 -31 24 -41 58 -22 80 47 56 202 89 304 63z m-467 -46 c2 -33 0 -43 -12 -43
-9 0 -16 11 -18 28 l-3 27 -272 3 c-150 1 -273 6 -273 10 0 5 3 12 7 15 4 4
133 6 287 5 l281 -3 3 -42z m1434 -105 c2 -73 1 -134 -2 -136 -3 -1 -210 -117
-460 -258 -250 -141 -462 -259 -472 -261 -14 -4 -17 8 -22 84 -4 48 -9 108
-12 133 l-5 45 243 134 c134 74 322 177 418 229 96 53 200 110 230 128 30 18
60 33 67 33 8 1 12 -38 15 -131z m-1902 57 c0 -19 -4 -35 -10 -35 -5 0 -10 16
-10 35 0 19 5 35 10 35 6 0 10 -16 10 -35z m-18 -65 c12 0 30 7 40 17 17 15
18 15 18 0 0 -34 -93 -36 -98 -2 -2 18 -2 18 8 3 6 -10 21 -18 32 -18z m1243
-70 c9 -15 -103 -64 -215 -93 -89 -24 -151 -31 -243 -28 -34 1 -37 3 -23 16 8
9 33 15 60 15 25 0 47 4 51 9 3 6 27 13 53 16 26 4 56 10 67 15 31 14 56 19
105 21 25 2 47 5 50 9 24 26 83 39 95 20z m-1155 -120 c206 -50 472 -114 590
-141 118 -28 220 -56 226 -63 7 -6 14 -67 17 -145 l6 -133 -22 5 c-68 17 -424
100 -797 186 l-425 98 -3 147 c-2 137 -1 147 15 142 10 -3 187 -46 393 -96z"/>
<path d="M2741 3601 c-61 -16 -112 -61 -153 -136 -33 -62 -38 -78 -38 -138 0
-62 3 -71 29 -97 17 -17 51 -35 87 -45 52 -14 124 -40 259 -93 22 -8 66 -16
97 -16 66 -1 96 16 143 83 26 37 30 53 33 121 4 71 1 84 -24 130 -65 119 -302
224 -433 191z"/>
<path d="M2440 3111 c-41 -13 -88 -40 -93 -53 -8 -23 14 -50 59 -69 35 -16 44
-25 44 -44 0 -27 -32 -65 -54 -65 -7 0 -30 11 -51 25 -51 35 -59 21 -13 -21
47 -42 93 -46 127 -10 20 22 30 24 70 19 40 -4 51 -2 75 18 27 24 51 94 36
104 -5 3 -14 -11 -20 -30 -18 -54 -71 -73 -103 -37 -23 25 -21 37 7 75 33 45
38 75 16 87 -21 11 -64 12 -100 1z m50 -11 c0 -11 -76 -33 -93 -27 -9 3 34 21
91 36 1 1 2 -3 2 -9z"/>
<path d="M2875 1549 c-33 -22 -61 -44 -63 -48 -2 -5 18 -14 43 -20 44 -11 47
-10 110 30 36 22 65 44 65 49 0 6 -81 32 -92 29 -2 0 -30 -18 -63 -40z m70 1
c-3 -5 -12 -10 -18 -10 -7 0 -6 4 3 10 19 12 23 12 15 0z"/>
<path d="M2988 1512 c-32 -20 -58 -42 -58 -48 0 -6 19 -16 42 -22 40 -10 46
-9 102 27 33 20 61 42 63 48 4 11 -47 33 -76 33 -9 0 -42 -17 -73 -38z"/>
<path d="M2122 1464 c-47 -33 -17 -74 55 -74 68 0 111 54 64 80 -29 15 -93 12
-119 -6z m114 -16 c17 -27 -70 -51 -105 -29 -12 8 -12 12 -2 25 16 19 96 22
107 4z"/>
<path d="M1974 957 c-3 -8 -4 -30 -2 -48 3 -33 4 -34 78 -50 41 -10 90 -20
108 -24 l32 -6 0 45 c0 42 -2 46 -27 52 -50 11 -148 35 -166 40 -10 3 -20 -1
-23 -9z"/>
<path d="M1976 843 c-3 -4 -6 -23 -6 -44 0 -42 6 -46 131 -69 30 -6 62 -13 72
-16 16 -5 18 0 15 42 l-3 48 -75 17 c-116 27 -127 28 -134 22z"/>
<path d="M4067 4163 c-4 -3 -7 -82 -7 -175 l0 -168 -38 0 c-44 0 -82 -23 -82
-50 0 -25 46 -60 80 -60 15 0 39 9 54 21 l26 20 0 159 c0 87 4 161 9 164 15
10 75 -15 99 -41 14 -15 22 -37 22 -59 0 -21 4 -33 10 -29 13 8 13 81 0 105
-5 10 -39 36 -74 59 -35 22 -67 45 -71 51 -7 12 -19 13 -28 3z"/>
<path d="M4247 3428 c-14 -18 -51 -72 -82 -121 -52 -78 -57 -90 -47 -112 12
-25 51 -41 77 -31 24 9 18 52 -10 73 l-25 18 46 69 46 68 40 -38 c66 -65 66
-66 8 -155 -51 -77 -52 -79 -36 -104 9 -14 20 -25 25 -25 5 0 16 -3 24 -6 8
-3 22 2 30 11 13 13 14 20 5 40 -6 14 -14 25 -17 25 -3 0 -12 4 -20 9 -11 7
-3 24 38 82 28 40 51 79 51 87 0 16 -107 142 -120 142 -5 0 -20 -15 -33 -32z"/>
<path d="M1142 2714 c-86 -119 -84 -102 -16 -191 81 -105 80 -101 50 -124 -48
-38 -42 -89 11 -89 28 0 73 41 73 68 0 10 -29 56 -65 102 -35 45 -61 88 -58
94 17 27 97 121 104 121 4 0 33 -33 64 -74 56 -72 57 -75 37 -90 -41 -33 -49
-86 -13 -94 43 -9 91 27 91 68 0 23 -197 275 -216 275 -8 0 -35 -30 -62 -66z"/>
</g>
</svg>
